<?xml version="1.0" encoding="utf-8"?>
<!-- Generator: Adobe Illustrator 16.0.0, SVG Export Plug-In . SVG Version: 6.00 Build 0)  -->
<!DOCTYPE svg PUBLIC "-//W3C//DTD SVG 1.1//EN" "http://www.w3.org/Graphics/SVG/1.1/DTD/svg11.dtd">
<svg version="1.1" id="Layer_1" xmlns="http://www.w3.org/2000/svg" xmlns:xlink="http://www.w3.org/1999/xlink" x="0px" y="0px"
	 width="2340px" height="1560px" viewBox="0 0 2340 1560" enable-background="new 0 0 2340 1560" xml:space="preserve">
<g>
	<path fill="#2174B8" d="M796.494,941.707h22.415v99.575h-22.415v-42.244h-37.646v42.244h-22.415v-99.575h22.415v38.077h37.646
		V941.707z"/>
	<path fill="#2174B8" d="M841.898,1041.282v-99.575h67.245v18.823h-44.83v19.541h39.801v18.393h-39.801v23.995h48.135v18.823
		H841.898z"/>
	<path fill="#2174B8" d="M989.085,1041.282c-2.804-5.546-5.873-11.163-9.207-16.852c-3.334-5.689-7.162-10.501-11.484-14.43
		c-1.34,1.482-3.038,3.541-5.094,6.177c-2.057,2.636-4.111,5.438-6.167,8.401c-2.057,2.963-3.983,6.036-5.774,9.216
		c-1.792,3.182-3.125,5.678-3.999,7.487h-25.576c4.189-7.774,9.135-15.804,14.84-24.083c5.703-8.28,12.065-17.069,19.088-26.374
		l-32.491-49.118h27.157l18.973,28.834l19.389-28.834h25.579l-32.316,48.059c8.473,10.617,15.451,20.35,20.929,29.198
		c5.478,8.848,9.802,16.288,12.968,22.318H989.085z"/>
	<path fill="#2174B8" d="M1100.805,1041.282c-1.109-3.46-2.299-7.014-3.574-10.66c-1.275-3.646-2.546-7.278-3.81-10.893h-38.89
		c-1.257,3.632-2.519,7.271-3.781,10.922c-1.264,3.65-2.44,7.196-3.529,10.631h-23.277c3.747-10.728,7.301-20.642,10.664-29.743
		c3.363-9.1,6.652-17.674,9.872-25.72c3.22-8.047,6.39-15.685,9.513-22.918c3.123-7.231,6.367-14.297,9.73-21.194h21.248
		c3.271,6.897,6.495,13.963,9.672,21.194c3.175,7.233,6.376,14.871,9.6,22.918c3.224,8.046,6.52,16.62,9.888,25.72
		c3.368,9.102,6.928,19.016,10.682,29.743H1100.805z M1073.875,964.266c-0.501,1.446-1.233,3.415-2.196,5.902
		c-0.963,2.49-2.059,5.366-3.289,8.629c-1.23,3.262-2.606,6.854-4.126,10.776c-1.52,3.922-3.064,8.035-4.634,12.339h28.475
		c-1.524-4.317-3-8.444-4.427-12.377c-1.428-3.934-2.787-7.533-4.071-10.797c-1.286-3.263-2.413-6.136-3.383-8.624
		C1075.253,967.629,1074.469,965.681,1073.875,964.266z"/>
	<path fill="#2174B8" d="M1167.485,940.558c14.847,0,26.245,2.611,34.197,7.831c7.95,5.222,11.926,13.771,11.926,25.648
		c0,11.975-4.022,20.619-12.069,25.936s-19.541,7.975-34.485,7.975h-7.041v33.335h-22.415v-98.138
		c4.885-0.957,10.058-1.628,15.518-2.012C1158.577,940.751,1163.366,940.558,1167.485,940.558z M1168.922,959.668
		c-1.63,0-3.233,0.05-4.813,0.144c-1.581,0.097-2.946,0.193-4.095,0.288v28.737h7.041c7.759,0,13.601-1.054,17.53-3.161
		c3.927-2.106,5.892-6.035,5.892-11.782c0-2.777-0.503-5.077-1.509-6.897c-1.006-1.818-2.443-3.28-4.311-4.383
		c-1.868-1.1-4.145-1.867-6.825-2.299C1175.147,959.884,1172.178,959.668,1168.922,959.668z"/>
	<path fill="#2174B8" d="M1230.133,941.707h22.415v99.575h-22.415V941.707z"/>
	<path fill="#2174B8" d="M1332.78,1041.282c-2.804-5.546-5.873-11.163-9.207-16.852c-3.334-5.689-7.162-10.501-11.483-14.43
		c-1.341,1.482-3.038,3.541-5.095,6.177s-4.11,5.438-6.167,8.401c-2.057,2.963-3.982,6.036-5.774,9.216
		c-1.792,3.182-3.125,5.678-3.999,7.487h-25.576c4.189-7.774,9.136-15.804,14.841-24.083c5.702-8.28,12.064-17.069,19.088-26.374
		l-32.491-49.118h27.156l18.974,28.834l19.389-28.834h25.579l-32.316,48.059c8.473,10.617,15.451,20.35,20.929,29.198
		c5.479,8.848,9.802,16.288,12.968,22.318H1332.78z"/>
	<path fill="#2174B8" d="M1372.523,1041.282v-99.575h67.245v18.823h-44.83v19.541h39.801v18.393h-39.801v23.995h48.135v18.823
		H1372.523z"/>
	<path fill="#2174B8" d="M1526.124,1022.028v19.254h-66.527v-99.575h22.415v80.321H1526.124z"/>
	<path fill="#2174B8" d="M1570.089,1024.184c3.161,0,5.771-0.263,7.831-0.79c2.059-0.525,3.712-1.244,4.957-2.155
		c1.244-0.909,2.106-1.987,2.587-3.233c0.479-1.244,0.719-2.634,0.719-4.167c0-3.255-1.534-5.963-4.599-8.118
		c-3.066-2.155-8.334-4.477-15.806-6.969c-3.257-1.149-6.515-2.465-9.771-3.951c-3.258-1.484-6.179-3.353-8.765-5.604
		c-2.587-2.249-4.694-4.979-6.322-8.189c-1.63-3.209-2.442-7.112-2.442-11.711c0-4.598,0.861-8.74,2.586-12.429
		c1.725-3.687,4.167-6.825,7.328-9.411c3.161-2.587,6.991-4.573,11.495-5.964c4.501-1.387,9.577-2.083,15.23-2.083
		c6.704,0,12.501,0.719,17.387,2.155c4.885,1.437,8.908,3.018,12.069,4.742l-6.466,17.673c-2.779-1.437-5.869-2.705-9.268-3.808
		c-3.401-1.1-7.497-1.652-12.285-1.652c-5.366,0-9.221,0.743-11.567,2.228c-2.349,1.486-3.521,3.76-3.521,6.825
		c0,1.82,0.432,3.354,1.294,4.598c0.861,1.246,2.083,2.371,3.663,3.377c1.581,1.006,3.399,1.917,5.461,2.729
		c2.059,0.815,4.333,1.652,6.825,2.515c5.172,1.917,9.674,3.808,13.506,5.676c3.83,1.868,7.017,4.048,9.556,6.538
		c2.537,2.491,4.43,5.412,5.676,8.765c1.243,3.354,1.867,7.425,1.867,12.213c0,9.293-3.257,16.502-9.771,21.625
		c-6.516,5.126-16.333,7.688-29.456,7.688c-4.407,0-8.383-0.265-11.926-0.79c-3.545-0.528-6.682-1.175-9.411-1.94
		c-2.73-0.766-5.079-1.58-7.041-2.442c-1.964-0.862-3.616-1.675-4.957-2.442l6.322-17.817c2.968,1.63,6.632,3.089,10.992,4.383
		C1558.426,1023.537,1563.767,1024.184,1570.089,1024.184z"/>
</g>
<g>
	<path fill="#9D9B98" d="M746.657,1098.862c0.996,0,1.817-0.083,2.466-0.249c0.648-0.165,1.169-0.392,1.562-0.679
		c0.392-0.286,0.663-0.626,0.814-1.019c0.15-0.392,0.226-0.829,0.226-1.313c0-1.024-0.483-1.878-1.448-2.557
		c-0.966-0.679-2.625-1.41-4.978-2.195c-1.026-0.361-2.052-0.776-3.078-1.244c-1.026-0.468-1.946-1.056-2.761-1.765
		c-0.814-0.709-1.479-1.568-1.991-2.58c-0.513-1.011-0.769-2.24-0.769-3.688s0.271-2.753,0.814-3.915
		c0.543-1.161,1.313-2.149,2.308-2.964s2.202-1.44,3.621-1.878c1.418-0.438,3.017-0.656,4.797-0.656
		c2.111,0,3.937,0.226,5.476,0.679c1.539,0.452,2.806,0.95,3.801,1.493l-2.037,5.566c-0.875-0.452-1.848-0.852-2.919-1.199
		c-1.071-0.346-2.361-0.521-3.87-0.521c-1.69,0-2.904,0.234-3.643,0.702c-0.74,0.468-1.109,1.185-1.109,2.149
		c0,0.573,0.136,1.057,0.408,1.448c0.271,0.393,0.656,0.747,1.154,1.063c0.498,0.316,1.071,0.604,1.72,0.86
		c0.648,0.256,1.365,0.521,2.15,0.792c1.629,0.604,3.047,1.199,4.254,1.787c1.207,0.589,2.21,1.275,3.01,2.06
		c0.799,0.784,1.395,1.705,1.788,2.761c0.392,1.056,0.588,2.338,0.588,3.847c0,2.927-1.026,5.197-3.078,6.811
		c-2.052,1.615-5.145,2.422-9.277,2.422c-1.388,0-2.641-0.084-3.756-0.249c-1.117-0.166-2.104-0.37-2.964-0.611
		s-1.6-0.497-2.218-0.77c-0.619-0.271-1.139-0.527-1.562-0.769l1.992-5.612c0.935,0.514,2.089,0.973,3.462,1.381
		C742.983,1098.659,744.665,1098.862,746.657,1098.862z"/>
	<path fill="#9D9B98" d="M817.979,1098.184v6.064h-20.954v-31.363h7.06v25.299H817.979z"/>
	<path fill="#9D9B98" d="M884.958,1088.544c0,2.686-0.4,5.046-1.199,7.083c-0.8,2.036-1.894,3.741-3.281,5.113
		c-1.388,1.374-3.04,2.407-4.956,3.101c-1.917,0.693-3.976,1.041-6.178,1.041c-2.143,0-4.164-0.348-6.064-1.041
		s-3.561-1.727-4.978-3.101c-1.419-1.372-2.535-3.077-3.349-5.113c-0.815-2.037-1.222-4.397-1.222-7.083
		c0-2.685,0.422-5.046,1.268-7.083c0.844-2.036,1.983-3.748,3.417-5.137c1.433-1.387,3.092-2.428,4.979-3.122
		c1.885-0.694,3.869-1.041,5.951-1.041c2.142,0,4.164,0.347,6.064,1.041s3.56,1.735,4.978,3.122
		c1.418,1.389,2.535,3.101,3.349,5.137C884.551,1083.498,884.958,1085.859,884.958,1088.544z M861.017,1088.544
		c0,1.539,0.188,2.927,0.565,4.164c0.377,1.237,0.92,2.301,1.629,3.19c0.708,0.89,1.576,1.576,2.603,2.059
		c1.025,0.483,2.202,0.725,3.53,0.725c1.297,0,2.466-0.241,3.507-0.725c1.041-0.482,1.916-1.169,2.625-2.059
		c0.708-0.89,1.251-1.953,1.629-3.19c0.377-1.237,0.565-2.625,0.565-4.164s-0.188-2.934-0.565-4.187
		c-0.378-1.251-0.921-2.322-1.629-3.213c-0.709-0.89-1.584-1.576-2.625-2.06c-1.041-0.482-2.21-0.724-3.507-0.724
		c-1.328,0-2.505,0.249-3.53,0.746c-1.026,0.498-1.894,1.192-2.603,2.082c-0.709,0.891-1.252,1.962-1.629,3.214
		C861.205,1085.655,861.017,1087.035,861.017,1088.544z"/>
	<path fill="#9D9B98" d="M938.721,1078.315c-3.289,0-5.665,0.913-7.128,2.738c-1.464,1.826-2.195,4.322-2.195,7.49
		c0,1.539,0.181,2.935,0.543,4.187c0.362,1.252,0.905,2.33,1.629,3.235s1.629,1.606,2.716,2.104
		c1.086,0.498,2.353,0.747,3.801,0.747c0.784,0,1.456-0.015,2.014-0.046c0.558-0.029,1.048-0.09,1.471-0.181v-10.907h7.06v15.523
		c-0.845,0.332-2.203,0.687-4.073,1.063c-1.871,0.377-4.179,0.565-6.924,0.565c-2.353,0-4.488-0.361-6.404-1.086
		c-1.916-0.724-3.553-1.779-4.91-3.168c-1.358-1.387-2.406-3.092-3.146-5.114c-0.74-2.021-1.109-4.329-1.109-6.924
		c0-2.625,0.407-4.948,1.222-6.97c0.814-2.021,1.93-3.733,3.349-5.137c1.417-1.402,3.084-2.467,5-3.19s3.96-1.086,6.132-1.086
		c1.478,0,2.813,0.098,4.005,0.294c1.191,0.196,2.218,0.423,3.078,0.679c0.86,0.257,1.568,0.521,2.127,0.792
		c0.558,0.271,0.958,0.483,1.199,0.634l-2.037,5.657c-0.966-0.513-2.075-0.958-3.326-1.335
		C941.564,1078.505,940.199,1078.315,938.721,1078.315z"/>
	<path fill="#9D9B98" d="M1008.819,1104.248c-0.35-1.09-0.724-2.209-1.126-3.357c-0.401-1.148-0.802-2.293-1.2-3.431h-12.249
		c-0.396,1.144-0.793,2.29-1.19,3.439c-0.398,1.15-0.769,2.267-1.112,3.349h-7.332c1.18-3.379,2.299-6.501,3.359-9.368
		c1.059-2.866,2.095-5.566,3.109-8.101c1.014-2.535,2.012-4.94,2.996-7.219c0.983-2.277,2.005-4.503,3.064-6.676h6.692
		c1.03,2.173,2.046,4.398,3.046,6.676c1,2.278,2.008,4.684,3.024,7.219c1.016,2.534,2.054,5.234,3.114,8.101
		c1.061,2.867,2.182,5.989,3.365,9.368H1008.819z M1000.337,1079.99c-0.158,0.455-0.388,1.075-0.691,1.859s-0.648,1.689-1.036,2.718
		c-0.387,1.027-0.821,2.158-1.3,3.394c-0.479,1.235-0.965,2.531-1.459,3.887h8.969c-0.48-1.359-0.945-2.659-1.395-3.898
		s-0.877-2.372-1.282-3.4c-0.405-1.027-0.76-1.933-1.066-2.717C1000.771,1081.05,1000.524,1080.436,1000.337,1079.99z"/>
	<path fill="#9D9B98" d="M1074.036,1104.248c-2.022-3.59-4.209-7.135-6.563-10.636c-2.353-3.499-4.858-6.803-7.512-9.911v20.547
		h-6.97v-31.363h5.748c0.996,0.996,2.097,2.218,3.304,3.666c1.207,1.448,2.436,2.995,3.688,4.639
		c1.251,1.645,2.496,3.35,3.734,5.114c1.237,1.765,2.398,3.462,3.484,5.092v-18.511h7.015v31.363H1074.036z"/>
	<path fill="#9D9B98" d="M1145.948,1078.315c-3.289,0-5.665,0.913-7.128,2.738c-1.464,1.826-2.195,4.322-2.195,7.49
		c0,1.539,0.181,2.935,0.543,4.187c0.362,1.252,0.905,2.33,1.629,3.235s1.629,1.606,2.716,2.104
		c1.086,0.498,2.353,0.747,3.801,0.747c0.784,0,1.456-0.015,2.014-0.046c0.558-0.029,1.048-0.09,1.471-0.181v-10.907h7.06v15.523
		c-0.845,0.332-2.203,0.687-4.073,1.063c-1.871,0.377-4.179,0.565-6.924,0.565c-2.353,0-4.488-0.361-6.404-1.086
		c-1.916-0.724-3.553-1.779-4.91-3.168c-1.358-1.387-2.406-3.092-3.146-5.114c-0.74-2.021-1.109-4.329-1.109-6.924
		c0-2.625,0.407-4.948,1.222-6.97c0.814-2.021,1.93-3.733,3.349-5.137c1.417-1.402,3.084-2.467,5-3.19s3.96-1.086,6.132-1.086
		c1.478,0,2.813,0.098,4.005,0.294c1.191,0.196,2.218,0.423,3.078,0.679c0.86,0.257,1.568,0.521,2.127,0.792
		c0.558,0.271,0.958,0.483,1.199,0.634l-2.037,5.657c-0.966-0.513-2.075-0.958-3.326-1.335
		C1148.791,1078.505,1147.426,1078.315,1145.948,1078.315z"/>
	<path fill="#9D9B98" d="M1224.874,1088.544c0,2.686-0.4,5.046-1.199,7.083c-0.8,2.036-1.894,3.741-3.281,5.113
		c-1.389,1.374-3.04,2.407-4.956,3.101s-3.976,1.041-6.177,1.041c-2.144,0-4.164-0.348-6.064-1.041
		c-1.901-0.693-3.561-1.727-4.979-3.101c-1.419-1.372-2.534-3.077-3.35-5.113c-0.814-2.037-1.222-4.397-1.222-7.083
		c0-2.685,0.422-5.046,1.268-7.083c0.844-2.036,1.983-3.748,3.417-5.137c1.433-1.387,3.092-2.428,4.978-3.122
		s3.87-1.041,5.952-1.041c2.142,0,4.163,0.347,6.063,1.041c1.901,0.694,3.561,1.735,4.979,3.122c1.418,1.389,2.534,3.101,3.35,5.137
		C1224.467,1083.498,1224.874,1085.859,1224.874,1088.544z M1200.933,1088.544c0,1.539,0.188,2.927,0.566,4.164
		c0.377,1.237,0.92,2.301,1.629,3.19s1.576,1.576,2.603,2.059c1.025,0.483,2.202,0.725,3.53,0.725c1.297,0,2.466-0.241,3.507-0.725
		c1.041-0.482,1.916-1.169,2.625-2.059s1.252-1.953,1.629-3.19s0.566-2.625,0.566-4.164s-0.189-2.934-0.566-4.187
		c-0.377-1.251-0.92-2.322-1.629-3.213c-0.709-0.89-1.584-1.576-2.625-2.06c-1.041-0.482-2.21-0.724-3.507-0.724
		c-1.328,0-2.505,0.249-3.53,0.746c-1.026,0.498-1.894,1.192-2.603,2.082c-0.709,0.891-1.252,1.962-1.629,3.214
		C1201.121,1085.655,1200.933,1087.035,1200.933,1088.544z"/>
	<path fill="#9D9B98" d="M1263.34,1104.248v-31.363h21.181v5.929h-14.12v6.155h12.536v5.793H1270.4v7.558h15.161v5.929H1263.34z"/>
	<path fill="#9D9B98" d="M1331.902,1098.862c0.996,0,1.817-0.083,2.467-0.249c0.648-0.165,1.169-0.392,1.562-0.679
		c0.392-0.286,0.663-0.626,0.814-1.019c0.15-0.392,0.227-0.829,0.227-1.313c0-1.024-0.483-1.878-1.448-2.557
		c-0.966-0.679-2.625-1.41-4.979-2.195c-1.026-0.361-2.052-0.776-3.077-1.244c-1.026-0.468-1.946-1.056-2.761-1.765
		s-1.479-1.568-1.991-2.58c-0.514-1.011-0.77-2.24-0.77-3.688s0.271-2.753,0.814-3.915c0.543-1.161,1.313-2.149,2.308-2.964
		c0.996-0.814,2.202-1.44,3.621-1.878c1.418-0.438,3.017-0.656,4.797-0.656c2.111,0,3.938,0.226,5.477,0.679
		c1.538,0.452,2.806,0.95,3.802,1.493l-2.037,5.566c-0.875-0.452-1.849-0.852-2.919-1.199c-1.071-0.346-2.361-0.521-3.869-0.521
		c-1.69,0-2.904,0.234-3.644,0.702s-1.108,1.185-1.108,2.149c0,0.573,0.136,1.057,0.407,1.448c0.271,0.393,0.656,0.747,1.154,1.063
		c0.497,0.316,1.07,0.604,1.72,0.86c0.648,0.256,1.364,0.521,2.149,0.792c1.629,0.604,3.047,1.199,4.254,1.787
		c1.206,0.589,2.21,1.275,3.01,2.06c0.799,0.784,1.396,1.705,1.787,2.761c0.393,1.056,0.589,2.338,0.589,3.847
		c0,2.927-1.026,5.197-3.077,6.811c-2.053,1.615-5.145,2.422-9.278,2.422c-1.388,0-2.641-0.084-3.756-0.249
		c-1.117-0.166-2.104-0.37-2.965-0.611c-0.859-0.241-1.6-0.497-2.217-0.77c-0.619-0.271-1.14-0.527-1.562-0.769l1.991-5.612
		c0.935,0.514,2.089,0.973,3.462,1.381C1328.229,1098.659,1329.911,1098.862,1331.902,1098.862z"/>
	<path fill="#9D9B98" d="M1412.051,1072.885h7.06v31.363h-7.06v-13.306h-11.857v13.306h-7.061v-31.363h7.061v11.993h11.857V1072.885
		z"/>
	<path fill="#9D9B98" d="M1458.935,1104.248v-31.363h21.181v5.929h-14.12v6.155h12.536v5.793h-12.536v7.558h15.161v5.929H1458.935z"
		/>
	<path fill="#9D9B98" d="M1528.131,1072.523c4.707,0,8.312,0.837,10.816,2.512c2.504,1.674,3.757,4.276,3.757,7.807
		c0,2.202-0.506,3.99-1.517,5.362c-1.011,1.374-2.467,2.452-4.367,3.236c0.634,0.785,1.297,1.683,1.991,2.692
		c0.693,1.012,1.381,2.067,2.06,3.168c0.679,1.103,1.335,2.248,1.969,3.439c0.633,1.192,1.222,2.361,1.765,3.508h-7.893
		c-0.575-1.025-1.159-2.066-1.749-3.123c-0.591-1.056-1.196-2.081-1.817-3.077c-0.62-0.996-1.234-1.938-1.84-2.828
		s-1.212-1.697-1.817-2.422h-3.484v11.45h-7.061v-30.91c1.539-0.302,3.13-0.513,4.775-0.634
		C1525.362,1072.584,1526.833,1072.523,1528.131,1072.523z M1528.538,1078.542c-0.514,0-0.973,0.016-1.38,0.045
		c-0.407,0.031-0.792,0.062-1.154,0.091v8.509h1.991c2.654,0,4.556-0.332,5.702-0.996c1.146-0.663,1.72-1.795,1.72-3.395
		c0-1.538-0.581-2.632-1.742-3.28C1532.513,1078.867,1530.801,1078.542,1528.538,1078.542z"/>
	<path fill="#9D9B98" d="M1581.713,1104.248v-31.363h21.181v5.929h-14.12v6.155h12.536v5.793h-12.536v7.558h15.161v5.929H1581.713z"
		/>
</g>
<g>
	<g>
		<g>
			<g>
				<linearGradient id="SVGID_1_" gradientUnits="userSpaceOnUse" x1="1345.6709" y1="792.9316" x2="899.053" y2="479.0154">
					<stop  offset="0" style="stop-color:#7CCAF2"/>
					<stop  offset="1" style="stop-color:#2174B8"/>
				</linearGradient>
				<path fill="url(#SVGID_1_)" d="M1020.588,508.978c0-3.924-3.209-7.135-7.134-7.135h-59.25c-3.924,0-7.134,3.211-7.134,7.133
					v59.251c0.001,3.924,3.21,7.134,7.134,7.134l59.25-0.001c3.924,0,7.134-3.211,7.134-7.133V508.978z"/>
			</g>
			<g>
				<linearGradient id="SVGID_2_" gradientUnits="userSpaceOnUse" x1="1300.2607" y1="857.5107" x2="853.6587" y2="543.6056">
					<stop  offset="0" style="stop-color:#7CCAF2"/>
					<stop  offset="1" style="stop-color:#2174B8"/>
				</linearGradient>
				<path fill="url(#SVGID_2_)" d="M947.07,582.496c0-3.924-3.209-7.135-7.134-7.136l-25.545,0.001
					c-3.925-0.001-7.137,3.211-7.136,7.135v25.546c-0.001,3.924,3.21,7.135,7.136,7.135l25.545-0.001
					c3.925,0.001,7.134-3.209,7.134-7.134V582.496z"/>
			</g>
			<g>
				<linearGradient id="SVGID_3_" gradientUnits="userSpaceOnUse" x1="1354.7324" y1="780.0449" x2="908.1125" y2="466.1272">
					<stop  offset="0" style="stop-color:#7CCAF2"/>
					<stop  offset="1" style="stop-color:#2174B8"/>
				</linearGradient>
				<path fill="url(#SVGID_3_)" d="M947.07,452.885c0-3.924-3.209-7.134-7.134-7.134h-41.823c-3.924,0-7.135,3.21-7.135,7.133
					v41.825c0,3.924,3.211,7.134,7.135,7.134l41.823-0.001c3.925,0.001,7.136-3.209,7.134-7.133V452.885z"/>
			</g>
			<g>
				<linearGradient id="SVGID_4_" gradientUnits="userSpaceOnUse" x1="1336.4863" y1="805.9951" x2="889.8714" y2="492.0809">
					<stop  offset="0" style="stop-color:#7CCAF2"/>
					<stop  offset="1" style="stop-color:#2174B8"/>
				</linearGradient>
				<path fill="url(#SVGID_4_)" d="M1078.461,582.496c0-3.924-3.21-7.135-7.135-7.136l-43.604,0.001
					c-3.924,0-7.134,3.211-7.134,7.135v43.603c0,3.922,3.21,7.134,7.134,7.134h43.604c3.924,0,7.135-3.21,7.135-7.136V582.496z"/>
			</g>
			<g>
				<linearGradient id="SVGID_5_" gradientUnits="userSpaceOnUse" x1="1293.4023" y1="867.2949" x2="846.7856" y2="553.3795">
					<stop  offset="0" style="stop-color:#7CCAF2"/>
					<stop  offset="1" style="stop-color:#2174B8"/>
				</linearGradient>
				<path fill="url(#SVGID_5_)" d="M1020.588,640.368c0-3.924-3.21-7.135-7.134-7.135h-35.422c-3.924,0-7.134,3.21-7.133,7.135
					l-0.001,35.42c0,3.925,3.21,7.136,7.134,7.136h35.423c3.923,0,7.133-3.211,7.133-7.135V640.368z"/>
			</g>
			<g>
				<linearGradient id="SVGID_6_" gradientUnits="userSpaceOnUse" x1="1257.9287" y1="917.7471" x2="811.3257" y2="603.8412">
					<stop  offset="0" style="stop-color:#7CCAF2"/>
					<stop  offset="1" style="stop-color:#2174B8"/>
				</linearGradient>
				<path fill="url(#SVGID_6_)" d="M970.898,690.058c0-3.924-3.21-7.134-7.134-7.134h-24.58c-3.924,0-7.134,3.21-7.136,7.134v24.579
					c0.001,3.925,3.212,7.136,7.136,7.134h24.58c3.925,0.001,7.136-3.209,7.134-7.133V690.058z"/>
			</g>
			<g>
				<linearGradient id="SVGID_7_" gradientUnits="userSpaceOnUse" x1="1262.8184" y1="910.8135" x2="816.1986" y2="596.8959">
					<stop  offset="0" style="stop-color:#7CCAF2"/>
					<stop  offset="1" style="stop-color:#2174B8"/>
				</linearGradient>
				<path fill="url(#SVGID_7_)" d="M932.05,659.101c0-3.924-3.212-7.136-7.134-7.136l-16.689,0.001
					c-3.924-0.001-7.135,3.21-7.133,7.134v16.689c-0.001,3.924,3.209,7.134,7.133,7.133l16.689,0.001
					c3.924-0.001,7.133-3.21,7.134-7.134V659.101z"/>
			</g>
			<g>
				<linearGradient id="SVGID_8_" gradientUnits="userSpaceOnUse" x1="1329.5918" y1="815.7969" x2="882.9854" y2="501.8886">
					<stop  offset="0" style="stop-color:#7CCAF2"/>
					<stop  offset="1" style="stop-color:#2174B8"/>
				</linearGradient>
				<path fill="url(#SVGID_8_)" d="M1119.187,640.368c0-3.924-3.211-7.135-7.135-7.135h-26.456c-3.924,0-7.134,3.21-7.134,7.135
					v26.458c0,3.924,3.21,7.134,7.134,7.134h26.456c3.924,0,7.135-3.21,7.135-7.134V640.368z"/>
			</g>
			<g>
				<linearGradient id="SVGID_9_" gradientUnits="userSpaceOnUse" x1="1366.3525" y1="763.4932" x2="919.7487" y2="449.5868">
					<stop  offset="0" style="stop-color:#7CCAF2"/>
					<stop  offset="1" style="stop-color:#2174B8"/>
				</linearGradient>
				<path fill="url(#SVGID_9_)" d="M1170.237,589.315c0-3.922-3.21-7.133-7.134-7.133l-36.782-0.001
					c-3.924,0.001-7.134,3.21-7.134,7.134v36.782c0,3.924,3.21,7.136,7.134,7.136h36.782c3.924,0,7.134-3.212,7.134-7.134V589.315z"
					/>
			</g>
			<g>
				<linearGradient id="SVGID_10_" gradientUnits="userSpaceOnUse" x1="1300.6182" y1="857.0254" x2="854.0026" y2="543.1108">
					<stop  offset="0" style="stop-color:#7CCAF2"/>
					<stop  offset="1" style="stop-color:#2174B8"/>
				</linearGradient>
				<path fill="url(#SVGID_10_)" d="M1078.461,681.094c0-3.924-3.21-7.135-7.135-7.135h-17.346c-3.924,0-7.134,3.21-7.134,7.135
					v17.346c0,3.924,3.21,7.134,7.134,7.134h17.346c3.924,0,7.135-3.21,7.135-7.134V681.094z"/>
			</g>
			<g>
				<linearGradient id="SVGID_11_" gradientUnits="userSpaceOnUse" x1="1268.7441" y1="902.375" x2="822.1307" y2="588.4619">
					<stop  offset="0" style="stop-color:#7CCAF2"/>
					<stop  offset="1" style="stop-color:#2174B8"/>
				</linearGradient>
				<path fill="url(#SVGID_11_)" d="M1046.847,712.708c0-3.924-3.21-7.134-7.135-7.134h-33.69c-3.924,0-7.135,3.209-7.135,7.134
					v33.691c0,3.924,3.21,7.135,7.135,7.135h33.69c3.924-0.001,7.135-3.21,7.135-7.135V712.708z"/>
			</g>
		</g>
		<linearGradient id="SVGID_12_" gradientUnits="userSpaceOnUse" x1="1339.3027" y1="801.9961" x2="892.6861" y2="488.0807">
			<stop  offset="0" style="stop-color:#7CCAF2"/>
			<stop  offset="1" style="stop-color:#2174B8"/>
		</linearGradient>
		<path fill="url(#SVGID_12_)" d="M1341.42,550.259l-167.245-96.558c-8.834-5.102-23.293-5.102-32.127,0l-106.991,61.77
			l0.001,45.423h49.833c4.423,0,8.039,3.616,8.04,8.037l-0.001,49.834h11.789l0.001-43.013c-0.001-4.42,3.614-8.038,8.037-8.038
			h63.911c4.421,0,8.039,3.617,8.039,8.038v63.912c-0.002,4.421-3.618,8.037-8.039,8.036l-43.015,0.001v32.689
			c0,4.421-3.618,8.038-8.038,8.038h-32.686l-0.001,23.577c0,4.42-3.615,8.038-8.038,8.038h-23.576v39.922
			c0,4.42-3.616,8.039-8.036,8.039h-60.821c-4.423,0-8.041-3.619-8.039-8.039v-23.724h-25.68v34.958
			c0,10.203,7.229,22.723,16.063,27.825l167.245,96.558c8.834,5.102,23.293,5.102,32.127,0l167.245-96.558
			c8.834-5.102,16.063-17.622,16.063-27.825V578.083C1357.483,567.88,1350.254,555.36,1341.42,550.259z"/>
		<linearGradient id="SVGID_13_" gradientUnits="userSpaceOnUse" x1="1314.7627" y1="836.9004" x2="868.1506" y2="522.9882">
			<stop  offset="0" style="stop-color:#7CCAF2"/>
			<stop  offset="1" style="stop-color:#2174B8"/>
		</linearGradient>
		<path fill="url(#SVGID_13_)" d="M998.987,618.765c3.924,0,7.134-3.21,7.134-7.134l-0.001-14.667c0-3.924-3.21-7.134-7.134-7.134
			l-30.312,0.001c-3.924,0-7.134,3.21-7.134,7.134v14.665c0,3.924,3.21,7.135,7.134,7.135L998.987,618.765z"/>
	</g>
	<linearGradient id="SVGID_14_" gradientUnits="userSpaceOnUse" x1="1181.0547" y1="679.5732" x2="1333.7329" y2="696.696">
		<stop  offset="0" style="stop-color:#FFFFFF;stop-opacity:0"/>
		<stop  offset="1" style="stop-color:#FFFFFF;stop-opacity:0.3"/>
	</linearGradient>
	<path fill="url(#SVGID_14_)" d="M1216.342,504.056c-21.697-21.697-46.255-38.787-72.449-51.306
		c-0.639,0.296-1.256,0.61-1.845,0.951l-106.991,61.77l0.001,45.423h49.833c4.423,0,8.039,3.616,8.04,8.037l-0.001,49.834h11.789
		l0.001-43.013c-0.001-4.42,3.614-8.038,8.037-8.038h63.911c4.421,0,8.039,3.617,8.039,8.038v63.912
		c-0.002,4.421-3.618,8.037-8.039,8.036l-43.015,0.001v32.689c0,4.421-3.618,8.038-8.038,8.038h-32.686l-0.001,23.577
		c0,4.42-3.615,8.038-8.038,8.038h-23.576v39.922c0,4.42-3.616,8.039-8.036,8.039h-60.821c-4.423,0-8.041-3.619-8.039-8.039v-23.724
		h-25.68v34.958c0,10.203,7.229,22.723,16.063,27.825l167.245,96.558c8.834,5.102,23.293,5.102,32.127,0l51.126-29.518
		C1318.813,762.978,1315.829,603.54,1216.342,504.056z"/>
</g>
</svg>
